<?xml version="1.0" encoding="utf-8"?>
<!-- Generator: Adobe Illustrator 26.0.2, SVG Export Plug-In . SVG Version: 6.00 Build 0)  -->
<svg version="1.1" id="Layer_1" xmlns="http://www.w3.org/2000/svg" xmlns:xlink="http://www.w3.org/1999/xlink" x="0px" y="0px"
	 viewBox="0 0 1920 1080" style="enable-background:new 0 0 1920 1080;" xml:space="preserve">
<style type="text/css">
	.st0{fill:#FEFEFE;}
	.st1{fill:#DFDFDF;}
</style>
<g>
	<g>
		<path class="st0" d="M936.94,0.11c326.33,0,652.66,0.01,978.99-0.08c3.33,0,4.08,0.75,4.07,4.08
			c-0.09,357.27-0.09,714.53,0,1071.8c0,3.33-0.75,4.08-4.07,4.08c-326.33-0.09-652.66-0.08-978.99-0.08c-0.23-0.3-0.47-0.6-0.7-0.9
			c-0.04-1.62-0.12-3.25-0.12-4.87c-0.01-356.08-0.01-712.16,0-1068.24c0-1.62,0.08-3.25,0.12-4.87
			C936.47,0.71,936.7,0.41,936.94,0.11z"/>
		<path d="M936.24,1.01c-0.04,1.62-0.12,3.25-0.12,4.87c-0.01,356.08-0.01,712.16,0,1068.24c0,1.62,0.08,3.25,0.12,4.87
			c-0.06,0.3-0.13,0.6-0.19,0.9c-310.61,0-621.22-0.01-931.83,0.11c-3.77,0-4.22-0.98-4.22-4.4C0.09,718.53,0.09,361.47,0,4.4
			C0,0.97,0.45,0,4.22,0c310.61,0.12,621.22,0.11,931.83,0.11C936.11,0.41,936.17,0.71,936.24,1.01z"/>
		<path class="st1" d="M936.24,1.01c-0.06-0.3-0.13-0.6-0.19-0.9c0.3,0,0.59,0,0.89,0C936.7,0.41,936.47,0.71,936.24,1.01z"/>
		<path class="st1" d="M936.05,1079.89c0.06-0.3,0.13-0.6,0.19-0.9c0.23,0.3,0.47,0.6,0.7,0.9
			C936.64,1079.89,936.34,1079.89,936.05,1079.89z"/>
	</g>
</g>
</svg>
